<svg width="216" height="95" viewBox="0 0 216 95" fill="none" xmlns="http://www.w3.org/2000/svg">
<path d="M21.068 89V73.6H27.404C28.768 73.6 29.934 73.82 30.902 74.26C31.8847 74.7 32.64 75.3307 33.168 76.152C33.696 76.9733 33.96 77.9487 33.96 79.078C33.96 80.2073 33.696 81.1827 33.168 82.004C32.64 82.8253 31.8847 83.456 30.902 83.896C29.934 84.336 28.768 84.556 27.404 84.556H22.652L23.928 83.214V89H21.068ZM23.928 83.522L22.652 82.136H27.272C28.5333 82.136 29.4793 81.872 30.11 81.344C30.7553 80.8013 31.078 80.046 31.078 79.078C31.078 78.0953 30.7553 77.34 30.11 76.812C29.4793 76.284 28.5333 76.02 27.272 76.02H22.652L23.928 74.612V83.522ZM40.933 89L47.863 73.6H50.679L57.631 89H54.639L48.677 75.118H49.821L43.881 89H40.933ZM44.123 85.436L44.893 83.192H53.209L53.979 85.436H44.123ZM72.8636 89.22C71.6609 89.22 70.5536 89.0293 69.5416 88.648C68.5442 88.252 67.6716 87.702 66.9236 86.998C66.1756 86.2793 65.5962 85.436 65.1856 84.468C64.7749 83.5 64.5696 82.444 64.5696 81.3C64.5696 80.156 64.7749 79.1 65.1856 78.132C65.5962 77.164 66.1756 76.328 66.9236 75.624C67.6862 74.9053 68.5736 74.3553 69.5856 73.974C70.5976 73.578 71.7049 73.38 72.9076 73.38C74.2129 73.38 75.3862 73.5927 76.4276 74.018C77.4836 74.4433 78.3709 75.0667 79.0896 75.888L77.2856 77.648C76.6842 77.0467 76.0316 76.6067 75.3276 76.328C74.6382 76.0347 73.8756 75.888 73.0396 75.888C72.2329 75.888 71.4849 76.02 70.7956 76.284C70.1062 76.548 69.5122 76.922 69.0136 77.406C68.5149 77.89 68.1262 78.462 67.8476 79.122C67.5836 79.782 67.4516 80.508 67.4516 81.3C67.4516 82.0773 67.5836 82.796 67.8476 83.456C68.1262 84.116 68.5149 84.6953 69.0136 85.194C69.5122 85.678 70.0989 86.052 70.7736 86.316C71.4482 86.58 72.1962 86.712 73.0176 86.712C73.7802 86.712 74.5136 86.5947 75.2176 86.36C75.9362 86.1107 76.6182 85.7 77.2636 85.128L78.8916 87.262C78.0849 87.9073 77.1462 88.3987 76.0756 88.736C75.0196 89.0587 73.9489 89.22 72.8636 89.22ZM76.1856 86.888V81.124H78.8916V87.262L76.1856 86.888ZM86.5658 89L93.4958 73.6H96.3118L103.264 89H100.272L94.3098 75.118H95.4538L89.5138 89H86.5658ZM89.7558 85.436L90.5258 83.192H98.8418L99.6118 85.436H89.7558ZM111.302 89V73.6H117.638C119.002 73.6 120.168 73.82 121.136 74.26C122.119 74.7 122.874 75.3307 123.402 76.152C123.93 76.9733 124.194 77.9487 124.194 79.078C124.194 80.2073 123.93 81.1827 123.402 82.004C122.874 82.8107 122.119 83.434 121.136 83.874C120.168 84.2993 119.002 84.512 117.638 84.512H112.886L114.162 83.214V89H111.302ZM121.378 89L117.484 83.412H120.542L124.458 89H121.378ZM114.162 83.522L112.886 82.158H117.506C118.768 82.158 119.714 81.8867 120.344 81.344C120.99 80.8013 121.312 80.046 121.312 79.078C121.312 78.0953 120.99 77.34 120.344 76.812C119.714 76.284 118.768 76.02 117.506 76.02H112.886L114.162 74.612V83.522ZM131.296 89L138.226 73.6H141.042L147.994 89H145.002L139.04 75.118H140.184L134.244 89H131.296ZM134.486 85.436L135.256 83.192H143.572L144.342 85.436H134.486ZM156.033 89V73.6H158.387L165.119 84.842H163.887L170.509 73.6H172.863L172.885 89H170.179L170.157 77.846H170.729L165.097 87.24H163.821L158.101 77.846H158.761V89H156.033ZM180.947 89L187.877 73.6H190.693L197.645 89H194.653L188.691 75.118H189.835L183.895 89H180.947ZM184.137 85.436L184.907 83.192H193.223L193.993 85.436H184.137Z" fill="#2D7BC0"/>
<path fill-rule="evenodd" clip-rule="evenodd" d="M113.047 0.0859351C114.852 -0.162554 116.534 0.127786 118.094 0.957826C119.324 5.89796 122.689 8.94957 128.187 10.1127C130.539 15.0702 134.576 18.7034 140.299 21.0113C144.065 17.7714 148.102 14.7197 152.411 11.8565C153.085 11.2749 153.757 11.2749 154.43 11.8565C161.301 18.9571 169.375 24.77 178.654 29.2943C182.187 33.5081 186.393 37.1413 191.271 40.1929C195.308 46.0058 200.691 50.6556 207.421 54.1431C209.891 57.731 212.751 61.0729 216 64.1699C214.655 64.7514 213.308 64.7514 211.963 64.1699C208.655 60.6265 204.786 57.5749 200.355 55.015C200.773 60.4469 203.633 64.6616 208.935 67.6575C207.129 68.1108 205.446 67.8205 203.888 66.7856C199.175 58.0693 193.624 49.7863 187.234 41.9367C185.801 41.0997 184.287 40.3734 182.692 39.757C179.226 36.1037 175.525 32.6162 171.589 29.2943C169.351 28.1826 166.995 27.3107 164.523 26.6786C161.016 22.3409 157.316 18.1262 153.421 14.0362C152.549 19.2222 152.212 24.3079 152.411 29.2943C151.402 29.8758 150.393 29.8758 149.383 29.2943C147.999 26.3473 145.812 23.8772 142.823 21.8832C142.318 22.3191 141.813 22.7551 141.309 23.191C143.663 26.3883 146.019 29.5846 148.374 32.7818C149.996 32.8821 151.51 32.4462 152.916 31.474C156.672 32.7321 160.204 34.3312 163.514 36.2694C170.554 43.5078 176.779 51.2092 182.187 59.3745C184.504 60.732 186.691 62.1855 188.748 63.7339C188.412 64.0243 188.074 64.3155 187.738 64.6058C185.588 63.7627 183.57 62.7452 181.682 61.5542C175.425 54.9575 169.538 48.128 164.019 41.0648C161.207 38.1108 157.843 35.7864 153.925 34.0897C153.227 34.5474 152.722 35.129 152.411 35.8334C154.771 39.5477 155.108 43.4712 153.421 47.604C156.139 50.3618 158.998 53.1222 162 55.8869C163.386 57.8007 163.722 59.8357 163.009 61.9902C162.285 62.8193 161.444 62.9641 160.486 62.4261C158.293 59.5149 155.601 57.0448 152.411 55.015C151.152 59.235 148.628 62.7226 144.841 65.4777C144.84 62.2657 145.345 59.0693 146.355 55.8869C146.074 54.28 145.736 52.681 145.346 51.0915C146.808 45.6814 147.986 40.3045 148.879 34.9616C145.686 31.7739 142.995 28.2864 140.804 24.4989C138.223 22.1517 135.362 20.1176 132.224 18.3956C130.461 25.7396 131.134 32.8603 134.243 39.757C134.061 41.7109 133.221 42.1468 131.72 41.0648C129.451 38.5991 127.432 35.9834 125.664 33.2178C124.97 31.4147 125.139 29.6709 126.168 27.9864C125.664 27.1145 125.159 26.2427 124.654 25.3708C124.318 21.5929 123.981 17.8141 123.645 14.0362C121.305 9.9941 118.951 5.92586 116.58 1.82972C114.586 10.5024 112.567 19.2213 110.523 27.9864C106.916 30.943 104.393 34.4306 102.953 38.4491C103.411 40.9785 104.42 43.3029 105.981 45.4242C104.636 48.0399 103.29 50.6556 101.944 53.2713C103.399 58.1085 105.417 62.7583 108 67.2215C107.127 68.1658 106.118 68.3105 104.972 67.6575C102.322 64.0967 99.7982 60.4644 97.402 56.7588C96.6702 56.2714 95.8295 55.9811 94.8787 55.8869C89.7653 58.4067 85.0557 61.4583 80.7478 65.0418C78.4869 65.8936 76.1321 66.3296 73.6824 66.3496C75.6436 61.2203 78.6716 56.5705 82.7665 52.3994C79.4044 50.8012 76.0392 49.2021 72.6731 47.604C76.1038 44.8523 79.2994 41.8007 82.2618 38.4491C82.2467 35.7724 81.5735 33.1567 80.2432 30.6021C75.371 37.5554 69.315 43.6587 62.075 48.9118C59.0469 53.8528 54.6734 57.6307 48.9535 60.2464C48.6587 65.1525 45.7983 67.6226 40.374 67.6575C44.583 66.0619 46.7692 63.3006 46.9348 59.3745C49.0372 55.7387 52.0653 52.8318 56.0189 50.6556C58.733 44.5262 63.6112 40.6027 70.6544 38.8851C71.8525 37.9966 72.8618 36.9791 73.6824 35.8334C72.5308 33.8211 70.8482 32.2229 68.6357 31.038C65.4502 30.2211 62.5907 28.9133 60.0563 27.1145C58.0608 31.4165 55.8745 35.6312 53.4955 39.757C52.571 40.083 51.7292 40.519 50.9722 41.0648C50.1243 30.9788 48.7778 31.2691 46.9348 41.9367C44.4084 44.5541 42.3897 47.4601 40.8787 50.6556C39.6201 56.3168 36.7606 61.2578 32.2993 65.4777C29.1955 65.1464 26.6722 63.9842 24.7292 61.9902C21.4478 62.6816 18.4198 63.8438 15.6451 65.4777C13.6224 63.2195 11.099 61.4757 8.07501 60.2464C5.06918 61.8254 2.54582 63.8595 0.504925 66.3496C-0.168308 65.4777 -0.168308 64.6058 0.504925 63.7339C8.50903 57.0038 17.7617 51.9181 28.2619 48.4759C30.1756 43.7031 33.8759 40.5059 39.3647 38.8851C43.6564 35.7628 47.1891 32.1297 49.9628 27.9864C52.0491 25.7457 54.5725 24.0019 57.5329 22.7551C60.9727 26.4528 65.3473 28.9228 70.6544 30.1662C72.1876 31.3441 73.533 32.6519 74.6918 34.0897C76.3239 31.2264 78.6787 28.901 81.7572 27.1145C83.1864 28.5436 84.869 29.2707 86.8039 29.2943C96.1545 19.9153 104.902 10.1798 113.047 0.0859351Z" fill="#FF3C39"/>
<path fill-rule="evenodd" clip-rule="evenodd" d="M86.9825 20.0361C88.2422 20.7633 88.9154 21.9255 89.0012 23.5237C88.8327 24.6859 88.6651 25.849 88.4966 27.0113C86.0136 28.2825 83.8263 29.8806 81.9358 31.8067C80.4783 32.4876 79.1329 32.342 77.8984 31.3707C81.1859 27.7192 84.2139 23.9413 86.9825 20.0361Z" fill="#FFF4EF"/>
<path fill-rule="evenodd" clip-rule="evenodd" d="M72.8503 40.9609C74.002 43.6987 74.1705 46.6047 73.355 49.6798C71.4009 53.1151 70.223 52.8248 69.8223 48.808C70.2351 45.9944 71.2444 43.3787 72.8503 40.9609Z" fill="#FFEDE8"/>
<path fill-rule="evenodd" clip-rule="evenodd" d="M16.3284 47.9365C18.5712 47.988 19.5805 49.0046 19.3564 50.9881C18.774 57.148 16.5868 62.8153 12.7957 67.99C13.1368 63.4666 12.9683 58.9616 12.291 54.4757C13.2358 52.1172 14.5812 49.9375 16.3284 47.9365Z" fill="#FFF4EF"/>
<path fill-rule="evenodd" clip-rule="evenodd" d="M116.253 49.6814C118.77 49.5323 120.62 50.4042 121.805 52.297C122.634 54.9598 122.466 57.5755 121.3 60.1441C119.678 56.9076 117.66 53.856 115.244 50.9892C115.805 50.6553 116.141 50.2193 116.253 49.6814Z" fill="#FF403C"/>
<path fill-rule="evenodd" clip-rule="evenodd" d="M87.9902 53.1689C89.6496 52.9823 91.1636 53.2735 92.5323 54.0408C94.4985 57.8449 96.3496 61.6228 98.0837 65.3754C97.0219 65.5053 96.0125 65.3606 95.0556 64.9394C90.9315 61.7352 88.5757 57.8117 87.9902 53.1689Z" fill="#FF413D"/>
</svg>
